# xmcd
#
# Track frame offsets: 
#        150
#        13162
#        26362
#        43275
#        54070
#        68837
#        79737
#        99300
#        111237
#        124275
#        145855
#        161175
#        180112
#
# Disc length: 2591 seconds
#
# Revision: 0
# Processed by: cddbd v1.5.2PL0 Copyright (c) Steve Scherf et al.
# Submitted via: ExactAudioCopy v0.99pb5
#
DISCID=a50a1d0d
DTITLE=David Grindstaff - Here and Now
DYEAR=2010
DGENRE=Bluegrass
TTITLE0=The Tinker Man
TTITLE1=Another Lonley Day
TTITLE2=Memories of an Angel
TTITLE3=A Place Prepared for You
TTITLE4=Everything's Alright
TTITLE5=Jack Up the Jail
TTITLE6=I'll Never Let Her Go
TTITLE7=Lost and I'll Never Find the Way
TTITLE8=If You've Got Something to Say
TTITLE9=Let Me Show You How I Feel
TTITLE10=The Man in the Middle
TTITLE11=Either Way I'm Going Home
TTITLE12=Takin' a Slow Train
EXTD=
EXTT0=
EXTT1=
EXTT2=
EXTT3=
EXTT4=
EXTT5=
EXTT6=
EXTT7=
EXTT8=
EXTT9=
EXTT10=
EXTT11=
EXTT12=
PLAYORDER=
